<svg width="36" height="34" viewBox="0 0 36 34" fill="none" xmlns="http://www.w3.org/2000/svg">
<path d="M16.5002 28.6667H5.66683C4.78277 28.6667 3.93493 28.3155 3.30981 27.6904C2.68469 27.0652 2.3335 26.2174 2.3335 25.3333V10.3333C2.3335 9.44928 2.68469 8.60143 3.30981 7.97631C3.93493 7.35119 4.78277 7 5.66683 7H7.3335C8.21755 7 9.0654 6.64881 9.69052 6.02369C10.3156 5.39857 10.6668 4.55072 10.6668 3.66667C10.6668 3.22464 10.8424 2.80072 11.155 2.48816C11.4675 2.1756 11.8915 2 12.3335 2H22.3335C22.7755 2 23.1994 2.1756 23.512 2.48816C23.8246 2.80072 24.0002 3.22464 24.0002 3.66667C24.0002 4.55072 24.3514 5.39857 24.9765 6.02369C25.6016 6.64881 26.4494 7 27.3335 7H29.0002C29.8842 7 30.7321 7.35119 31.3572 7.97631C31.9823 8.60143 32.3335 9.44928 32.3335 10.3333V14.5" stroke="black" stroke-width="3" stroke-linecap="round" stroke-linejoin="round"/>
<path d="M21.9284 15.025C21.5906 14.2402 21.0573 13.555 20.3795 13.0349C19.7017 12.5148 18.9019 12.177 18.0564 12.0539C17.2109 11.9307 16.348 12.0263 15.5499 12.3314C14.7519 12.6366 14.0453 13.1412 13.4977 13.797C12.9501 14.4528 12.5797 15.238 12.4218 16.0777C12.2639 16.9174 12.3238 17.7835 12.5958 18.5935C12.8679 19.4034 13.3429 20.1302 13.9756 20.7043C14.6083 21.2785 15.3776 21.681 16.21 21.8733M31 29L34 32M22.3334 25.3333C22.3334 26.6594 22.8602 27.9312 23.7978 28.8689C24.7355 29.8065 26.0073 30.3333 27.3334 30.3333C28.6595 30.3333 29.9312 29.8065 30.8689 28.8689C31.8066 27.9312 32.3334 26.6594 32.3334 25.3333C32.3334 24.0072 31.8066 22.7355 30.8689 21.7978C29.9312 20.8601 28.6595 20.3333 27.3334 20.3333C26.0073 20.3333 24.7355 20.8601 23.7978 21.7978C22.8602 22.7355 22.3334 24.0072 22.3334 25.3333Z" stroke="black" stroke-width="3" stroke-linecap="round" stroke-linejoin="round"/>
</svg>
