<svg width="11" height="14" viewBox="0 0 11 14" fill="none" xmlns="http://www.w3.org/2000/svg">
<path d="M10.2063 4.5L6.75 1.04375C6.66218 0.955817 6.54303 0.906359 6.41875 0.90625H4.875C4.41916 0.90625 3.98199 1.08733 3.65966 1.40966C3.33733 1.73199 3.15625 2.16916 3.15625 2.625V3.40625H2.375C1.91916 3.40625 1.48199 3.58733 1.15966 3.90966C0.837332 4.23199 0.65625 4.66916 0.65625 5.125V11.375C0.65625 11.8308 0.837332 12.268 1.15966 12.5903C1.48199 12.9127 1.91916 13.0938 2.375 13.0938H6.75C7.20584 13.0938 7.64301 12.9127 7.96534 12.5903C8.28767 12.268 8.46875 11.8308 8.46875 11.375V10.5938H8.625C9.08084 10.5938 9.51801 10.4127 9.84034 10.0903C10.1627 9.76801 10.3438 9.33084 10.3438 8.875V4.8125C10.3388 4.69475 10.2897 4.58318 10.2063 4.5ZM6.90625 2.50625L8.74375 4.34375H6.90625V2.50625ZM7.53125 11.375C7.53125 11.5822 7.44894 11.7809 7.30243 11.9274C7.15591 12.0739 6.9572 12.1562 6.75 12.1562H2.375C2.1678 12.1562 1.96909 12.0739 1.82257 11.9274C1.67606 11.7809 1.59375 11.5822 1.59375 11.375V5.125C1.59375 4.9178 1.67606 4.71909 1.82257 4.57257C1.96909 4.42606 2.1678 4.34375 2.375 4.34375H3.15625V8.875C3.15625 9.33084 3.33733 9.76801 3.65966 10.0903C3.98199 10.4127 4.41916 10.5938 4.875 10.5938H7.53125V11.375ZM8.625 9.65625H4.875C4.6678 9.65625 4.46909 9.57394 4.32257 9.42743C4.17606 9.28091 4.09375 9.0822 4.09375 8.875V2.625C4.09375 2.4178 4.17606 2.21909 4.32257 2.07257C4.46909 1.92606 4.6678 1.84375 4.875 1.84375H5.96875V4.8125C5.97037 4.93632 6.02027 5.05461 6.10783 5.14217C6.19539 5.22973 6.31368 5.27963 6.4375 5.28125H9.40625V8.875C9.40625 9.0822 9.32394 9.28091 9.17743 9.42743C9.03092 9.57394 8.8322 9.65625 8.625 9.65625Z" fill="black"/>
</svg>
