<svg width="30" height="30" viewBox="0 0 30 30" fill="none" xmlns="http://www.w3.org/2000/svg">
<rect width="30" height="30" rx="15" fill="#A6A6A6" fill-opacity="0.2"/>
<path d="M15.0002 7.08331C12.9005 7.08331 10.8869 7.91739 9.40223 9.40205C7.91757 10.8867 7.0835 12.9003 7.0835 15C7.0835 17.0996 7.91757 19.1132 9.40223 20.5979C10.8869 22.0826 12.9005 22.9166 15.0002 22.9166L15.0002 15V7.08331Z" fill="#F2BE5C"/>
<path d="M14.9998 22.9167C17.0995 22.9167 19.1131 22.0826 20.5978 20.5979C22.0824 19.1133 22.9165 17.0997 22.9165 15C22.9165 12.9004 22.0824 10.8868 20.5978 9.40209C19.1131 7.91743 17.0995 7.08336 14.9998 7.08336L14.9998 15L14.9998 22.9167Z" fill="#F2BE5C" fill-opacity="0.5"/>
</svg>
