<svg width="14" height="11" viewBox="0 0 14 11" fill="none" xmlns="http://www.w3.org/2000/svg">
<g clip-path="url(#clip0_1828_4966)">
<path d="M3.1854 10.4503V9.78845C3.1854 9.53468 3.03093 9.36925 2.76615 9.36925C2.63379 9.36925 2.49037 9.41337 2.39108 9.55679C2.31389 9.43543 2.20359 9.36925 2.03811 9.36925C1.92776 9.36925 1.81751 9.40232 1.72922 9.52368V9.39131H1.49756V10.4503H1.72922V9.86564C1.72922 9.67815 1.82851 9.58986 1.98299 9.58986C2.13736 9.58986 2.21464 9.68915 2.21464 9.86564V10.4503H2.4463V9.86564C2.4463 9.67815 2.55655 9.58986 2.69997 9.58986C2.85444 9.58986 2.93163 9.68915 2.93163 9.86564V10.4503H3.1854ZM6.6161 9.39131H6.24108V9.07141H6.00942V9.39131H5.79982V9.60086H6.00937V10.0863C6.00937 10.329 6.10866 10.4724 6.37344 10.4724C6.47273 10.4724 6.58299 10.4393 6.66027 10.3952L6.59404 10.1966C6.52786 10.2407 6.45067 10.2518 6.3955 10.2518C6.2852 10.2518 6.24108 10.1856 6.24108 10.0752V9.60086H6.6161V9.39131ZM8.57972 9.3692C8.44736 9.3692 8.35912 9.43543 8.30394 9.52368V9.39131H8.07228V10.4503H8.30394V9.85463C8.30394 9.67815 8.38113 9.57885 8.52454 9.57885C8.56867 9.57885 8.62384 9.58991 8.66796 9.60091L8.73414 9.38031C8.69002 9.36925 8.62384 9.36925 8.57972 9.36925M5.61228 9.47961C5.50193 9.40237 5.34751 9.3693 5.18203 9.3693C4.91731 9.3693 4.74083 9.50167 4.74083 9.71126C4.74083 9.8878 4.87319 9.98704 5.10485 10.0202L5.21515 10.0312C5.3365 10.0532 5.40268 10.0863 5.40268 10.1415C5.40268 10.2187 5.31444 10.2739 5.15997 10.2739C5.00555 10.2739 4.88419 10.2187 4.80696 10.1636L4.69665 10.3401C4.81801 10.4283 4.98349 10.4724 5.14892 10.4724C5.45781 10.4724 5.63434 10.3291 5.63434 10.1305C5.63434 9.94292 5.49093 9.84363 5.27027 9.81056L5.15997 9.7995C5.06067 9.78845 4.98349 9.76644 4.98349 9.70026C4.98349 9.62302 5.06067 9.5789 5.18203 9.5789C5.31444 9.5789 5.44681 9.63403 5.51299 9.66714L5.61228 9.47961ZM11.7678 9.3693C11.6354 9.3693 11.5472 9.43549 11.492 9.52373V9.39136H11.2603V10.4504H11.492V9.85468C11.492 9.6782 11.5692 9.5789 11.7126 9.5789C11.7568 9.5789 11.8119 9.58996 11.8561 9.60096L11.9222 9.38036C11.8781 9.3693 11.8119 9.3693 11.7678 9.3693ZM8.81138 9.92086C8.81138 10.2408 9.03198 10.4724 9.37399 10.4724C9.52841 10.4724 9.63872 10.4394 9.74902 10.3511L9.63871 10.1636C9.55047 10.2298 9.46223 10.2628 9.36294 10.2628C9.1754 10.2628 9.04304 10.1305 9.04304 9.92086C9.04304 9.72232 9.1754 9.58991 9.36294 9.5789C9.46223 9.5789 9.55047 9.61197 9.63871 9.6782L9.74902 9.49066C9.63872 9.40237 9.52841 9.3693 9.37399 9.3693C9.03198 9.3693 8.81138 9.60096 8.81138 9.92086ZM10.9515 9.92086V9.39136H10.7198V9.52373C10.6426 9.42448 10.5323 9.3693 10.3889 9.3693C10.091 9.3693 9.85937 9.60096 9.85937 9.92086C9.85937 10.2408 10.091 10.4724 10.3889 10.4724C10.5433 10.4724 10.6536 10.4173 10.7198 10.318V10.4504H10.9515V9.92086ZM10.102 9.92086C10.102 9.73332 10.2234 9.5789 10.4219 9.5789C10.6095 9.5789 10.7419 9.72232 10.7419 9.92086C10.7419 10.1084 10.6095 10.2628 10.4219 10.2628C10.2234 10.2518 10.102 10.1084 10.102 9.92086ZM7.33319 9.3693C7.02429 9.3693 6.80364 9.58991 6.80364 9.92086C6.80364 10.2518 7.02424 10.4724 7.34419 10.4724C7.49861 10.4724 7.65309 10.4283 7.77444 10.3291L7.66409 10.1636C7.57585 10.2298 7.46555 10.2739 7.35525 10.2739C7.21183 10.2739 7.06841 10.2077 7.0353 10.0201H7.81856V9.93192C7.82962 9.58991 7.63108 9.3693 7.33319 9.3693ZM7.33314 9.56785C7.4765 9.56785 7.57585 9.65614 7.59786 9.82162H7.0463C7.06836 9.6782 7.16766 9.56785 7.33314 9.56785ZM13.0805 9.92086V8.97217H12.8488V9.52373C12.7716 9.42448 12.6613 9.3693 12.5179 9.3693C12.22 9.3693 11.9884 9.60096 11.9884 9.92086C11.9884 10.2408 12.22 10.4724 12.5179 10.4724C12.6723 10.4724 12.7826 10.4173 12.8488 10.318V10.4504H13.0805V9.92086ZM12.2311 9.92086C12.2311 9.73332 12.3524 9.5789 12.551 9.5789C12.7385 9.5789 12.8709 9.72232 12.8709 9.92086C12.8709 10.1084 12.7385 10.2628 12.551 10.2628C12.3524 10.2518 12.2311 10.1084 12.2311 9.92086ZM4.48701 9.92086V9.39136H4.25535V9.52373C4.17811 9.42448 4.06781 9.3693 3.92439 9.3693C3.62655 9.3693 3.3949 9.60096 3.3949 9.92086C3.3949 10.2408 3.62655 10.4724 3.92439 10.4724C4.07887 10.4724 4.18917 10.4173 4.25535 10.318V10.4504H4.48701V9.92086ZM3.62655 9.92086C3.62655 9.73332 3.74791 9.5789 3.94645 9.5789C4.13399 9.5789 4.2664 9.72232 4.2664 9.92086C4.2664 10.1084 4.13399 10.2628 3.94645 10.2628C3.74791 10.2518 3.62655 10.1084 3.62655 9.92086Z" fill="black"/>
<path d="M5.53516 1.34943H9.01003V7.5932H5.53516V1.34943Z" fill="#FF5F00"/>
<path d="M5.75568 4.47131C5.75568 3.20271 6.35135 2.07749 7.26693 1.3494C6.59407 0.819899 5.74467 0.5 4.81804 0.5C2.62271 0.5 0.84668 2.27603 0.84668 4.47131C0.84668 6.66653 2.62271 8.44261 4.81799 8.44261C5.74462 8.44261 6.59402 8.12271 7.26693 7.59317C6.35135 6.87613 5.75568 5.7399 5.75568 4.47131Z" fill="#EB001B"/>
<path d="M13.6986 4.47131C13.6986 6.66653 11.9225 8.44261 9.72726 8.44261C8.80063 8.44261 7.95123 8.12271 7.27832 7.59317C8.20495 6.86513 8.78963 5.7399 8.78963 4.47131C8.78963 3.20271 8.1939 2.07749 7.27832 1.3494C7.95118 0.819899 8.80063 0.5 9.72726 0.5C11.9225 0.5 13.6986 2.28709 13.6986 4.47131Z" fill="#F79E1B"/>
</g>
<defs>
<clipPath id="clip0_1828_4966">
<rect width="12.8667" height="10" fill="white" transform="translate(0.845703 0.5)"/>
</clipPath>
</defs>
</svg>
