<svg width="150" height="144" viewBox="0 0 150 144" fill="none" xmlns="http://www.w3.org/2000/svg">
<path d="M67.623 76.8363L57.4356 66.8246C56.1475 65.5365 54.5386 64.8925 52.6089 64.8925C50.6792 64.8925 49.0094 65.5951 47.5995 67.0002C46.3115 68.2883 45.6674 69.9276 45.6674 71.9183C45.6674 73.9089 46.3115 75.5482 47.5995 76.8363L62.7049 91.9417C64.1101 93.3469 65.7494 94.0494 67.623 94.0494C69.4965 94.0494 71.1358 93.3469 72.541 91.9417L102.4 62.0822C103.806 60.6771 104.478 59.0377 104.417 57.1642C104.356 55.2906 103.684 53.6513 102.4 52.2461C100.995 50.841 99.3279 50.1103 97.3981 50.0541C95.4684 49.9979 93.7986 50.67 92.3888 52.0705L67.623 76.8363ZM47.9508 140.419L37.7635 123.206L18.4426 118.991C16.6862 118.64 15.281 117.733 14.2272 116.272C13.1733 114.811 12.7635 113.199 12.9977 111.438L14.9297 91.5904L1.75644 76.485C0.58548 75.197 0 73.6747 0 71.9183C0 70.1618 0.58548 68.6396 1.75644 67.3515L14.9297 52.2461L12.9977 32.3984C12.7635 30.6419 13.1733 29.0307 14.2272 27.5646C15.281 26.0986 16.6862 25.1923 18.4426 24.8457L37.7635 20.6302L47.9508 3.4171C48.8876 1.89485 50.1756 0.869092 51.815 0.339818C53.4543 -0.189456 55.0937 -0.100463 56.733 0.606797L75 8.33513L93.267 0.606797C94.9063 -0.0957793 96.5457 -0.184772 98.185 0.339818C99.8244 0.864408 101.112 1.89017 102.049 3.4171L112.237 20.6302L131.557 24.8457C133.314 25.197 134.719 26.1056 135.773 27.5717C136.827 29.0377 137.237 30.6466 137.002 32.3984L135.07 52.2461L148.244 67.3515C149.415 68.6396 150 70.1618 150 71.9183C150 73.6747 149.415 75.197 148.244 76.485L135.07 91.5904L137.002 111.438C137.237 113.195 136.827 114.806 135.773 116.272C134.719 117.738 133.314 118.644 131.557 118.991L112.237 123.206L102.049 140.419C101.112 141.942 99.8244 142.967 98.185 143.497C96.5457 144.026 94.9063 143.937 93.267 143.23L75 135.501L56.733 143.23C55.0937 143.932 53.4543 144.021 51.815 143.497C50.1756 142.972 48.8876 141.946 47.9508 140.419Z" fill="#F2BE5C"/>
</svg>
