<svg width="26" height="26" viewBox="0 0 26 26" fill="none" xmlns="http://www.w3.org/2000/svg">
<path d="M1.08936 18.9662L7.91706 12.1385C8.47544 11.5803 9.23268 11.2667 10.0222 11.2667C10.8118 11.2667 11.569 11.5803 12.1274 12.1385L18.9551 18.9662M15.9775 15.9885L18.3388 13.6273C18.8971 13.0691 19.6544 12.7555 20.4439 12.7555C21.2335 12.7555 21.9907 13.0691 22.5491 13.6273L24.9104 15.9885M15.9775 7.05566H15.9924M4.06698 24.9214H21.9328C22.7225 24.9214 23.4798 24.6077 24.0383 24.0493C24.5967 23.4909 24.9104 22.7335 24.9104 21.9438V4.07803C24.9104 3.28831 24.5967 2.53094 24.0383 1.97253C23.4798 1.41412 22.7225 1.1004 21.9328 1.1004H4.06698C3.27727 1.1004 2.5199 1.41412 1.96148 1.97253C1.40307 2.53094 1.08936 3.28831 1.08936 4.07803V21.9438C1.08936 22.7335 1.40307 23.4909 1.96148 24.0493C2.5199 24.6077 3.27727 24.9214 4.06698 24.9214Z" stroke="#696969" stroke-width="1.11661" stroke-linecap="round" stroke-linejoin="round"/>
</svg>
