<svg width="24" height="24" viewBox="0 0 24 24" fill="none" xmlns="http://www.w3.org/2000/svg">
<path d="M15.1008 1.30534C14.697 0.892137 14.2147 0.563805 13.6822 0.33964C13.1497 0.115475 12.5778 0 12 0C11.4222 0 10.8503 0.115475 10.3178 0.33964C9.7853 0.563805 9.30298 0.892137 8.89919 1.30534L7.96609 2.26238L6.63096 2.24588C6.05303 2.23904 5.47956 2.34782 4.94428 2.56582C4.40901 2.78383 3.92272 3.10665 3.51404 3.51532C3.10535 3.92398 2.7825 4.41023 2.56448 4.94547C2.34647 5.48072 2.23768 6.05415 2.24452 6.63205L2.25952 7.9671L1.30542 8.90013C0.892193 9.3039 0.56384 9.78619 0.339662 10.3187C0.115483 10.8511 0 11.423 0 12.0008C0 12.5785 0.115483 13.1504 0.339662 13.6828C0.56384 14.2153 0.892193 14.6976 1.30542 15.1014L2.26102 16.0344L2.24452 17.3695C2.23768 17.9474 2.34647 18.5208 2.56448 19.056C2.7825 19.5913 3.10535 20.0775 3.51404 20.4862C3.92272 20.8948 4.40901 21.2177 4.94428 21.4357C5.47956 21.6537 6.05303 21.7625 6.63096 21.7556L7.96609 21.7406L8.89919 22.6947C9.30298 23.1079 9.7853 23.4362 10.3178 23.6604C10.8503 23.8845 11.4222 24 12 24C12.5778 24 13.1497 23.8845 13.6822 23.6604C14.2147 23.4362 14.697 23.1079 15.1008 22.6947L16.0339 21.7391L17.369 21.7556C17.947 21.7625 18.5204 21.6537 19.0557 21.4357C19.591 21.2177 20.0773 20.8948 20.486 20.4862C20.8947 20.0775 21.2175 19.5913 21.4355 19.056C21.6535 18.5208 21.7623 17.9474 21.7555 17.3695L21.7405 16.0344L22.6946 15.1014C23.1078 14.6976 23.4362 14.2153 23.6603 13.6828C23.8845 13.1504 24 12.5785 24 12.0008C24 11.423 23.8845 10.8511 23.6603 10.3187C23.4362 9.78619 23.1078 9.3039 22.6946 8.90013L21.739 7.9671L21.7555 6.63205C21.7623 6.05415 21.6535 5.48072 21.4355 4.94547C21.2175 4.41023 20.8947 3.92398 20.486 3.51532C20.0773 3.10665 19.591 2.78383 19.0557 2.56582C18.5204 2.34782 17.947 2.23904 17.369 2.24588L16.0339 2.26088L15.1008 1.30684V1.30534ZM15.5314 10.2817L11.0309 14.7819C10.9612 14.8517 10.8785 14.9071 10.7873 14.9449C10.6962 14.9827 10.5985 15.0022 10.4998 15.0022C10.4012 15.0022 10.3035 14.9827 10.2124 14.9449C10.1212 14.9071 10.0385 14.8517 9.9688 14.7819L7.71857 12.5318C7.64883 12.462 7.59351 12.3792 7.55577 12.2881C7.51802 12.197 7.4986 12.0994 7.4986 12.0008C7.4986 11.9021 7.51802 11.8045 7.55577 11.7134C7.59351 11.6223 7.64883 11.5395 7.71857 11.4697C7.78831 11.4 7.8711 11.3447 7.96222 11.3069C8.05334 11.2692 8.151 11.2498 8.24962 11.2498C8.34825 11.2498 8.44591 11.2692 8.53703 11.3069C8.62815 11.3447 8.71094 11.4 8.78068 11.4697L10.4998 13.1903L14.4692 9.21964C14.6101 9.07881 14.8011 8.99969 15.0003 8.99969C15.1995 8.99969 15.3905 9.07881 15.5314 9.21964C15.6722 9.36048 15.7513 9.55149 15.7513 9.75066C15.7513 9.94984 15.6722 10.1408 15.5314 10.2817Z" fill="#0162F3"/>
</svg>
