<svg width="31" height="11" viewBox="0 0 31 11" fill="none" xmlns="http://www.w3.org/2000/svg">
<g clip-path="url(#clip0_1828_4964)">
<path d="M15.9529 3.68412C15.9353 5.07159 17.1894 5.8458 18.1341 6.30617C19.1047 6.77846 19.4307 7.08135 19.4269 7.50376C19.4197 8.15014 18.6527 8.43544 17.935 8.44653C16.6828 8.46593 15.9547 8.10846 15.3759 7.83809L14.9248 9.94882C15.5056 10.2164 16.5809 10.4498 17.6959 10.46C20.3134 10.46 22.0258 9.16797 22.0351 7.16472C22.0453 4.62231 18.5185 4.48159 18.5425 3.3452C18.5509 3.00062 18.8797 2.63291 19.6001 2.53942C19.9568 2.49219 20.9412 2.45605 22.0574 2.97002L22.4954 0.927854C21.8952 0.709299 21.1238 0.500022 20.1633 0.500022C17.6997 0.500022 15.9669 1.80966 15.9529 3.68412ZM26.7048 0.675925C26.2269 0.675925 25.8241 0.95472 25.6444 1.38255L21.9054 10.31H24.521L25.0415 8.87159H28.2376L28.5395 10.31H30.8448L28.8331 0.675925H26.7048ZM27.0707 3.27846L27.8256 6.89617H25.7583L27.0707 3.27846ZM12.7817 0.676045L10.72 10.3099H13.2124L15.2732 0.675805L12.7817 0.676045ZM9.0946 0.676045L6.50038 7.23327L5.45098 1.65773C5.32785 1.03532 4.84159 0.675925 4.30159 0.675925H0.0608624L0.00146484 0.955685C0.872067 1.1446 1.86122 1.4493 2.4605 1.77532C2.82725 1.97448 2.93183 2.14858 3.05231 2.62183L5.0399 10.31H7.67375L11.7118 0.675925L9.0946 0.676045Z" fill="url(#paint0_linear_1828_4964)"/>
</g>
<defs>
<linearGradient id="paint0_linear_1828_4964" x1="1417.99" y1="30.4398" x2="1446.82" y2="-992.467" gradientUnits="userSpaceOnUse">
<stop stop-color="#222357"/>
<stop offset="1" stop-color="#254AA5"/>
</linearGradient>
<clipPath id="clip0_1828_4964">
<rect width="30.8458" height="10" fill="white" transform="translate(0 0.5)"/>
</clipPath>
</defs>
</svg>
